<svg viewBox="0 0 12 14" fill="none" xmlns="http://www.w3.org/2000/svg">
<path d="M9.99999 1.98667C8.93913 0.925799 7.50028 0.329811 5.99999 0.329811C4.4997 0.329811 3.06086 0.925799 1.99999 1.98667C0.939128 3.04753 0.34314 4.48637 0.34314 5.98667C0.34314 7.48696 0.939128 8.9258 1.99999 9.98666L5.51333 13.5067C5.5753 13.5691 5.64904 13.6187 5.73028 13.6526C5.81152 13.6864 5.89865 13.7039 5.98666 13.7039C6.07467 13.7039 6.16181 13.6864 6.24304 13.6526C6.32428 13.6187 6.39802 13.5691 6.45999 13.5067L9.99999 9.95333C11.0564 8.89688 11.6499 7.46403 11.6499 5.97C11.6499 4.47596 11.0564 3.04312 9.99999 1.98667ZM9.04666 9L5.99999 12.06L2.95333 9C2.35142 8.39754 1.94164 7.63016 1.77579 6.79486C1.60994 5.95955 1.69545 5.09383 2.02153 4.30712C2.34761 3.52041 2.89961 2.84803 3.60775 2.37498C4.31589 1.90194 5.14838 1.64945 5.99999 1.64945C6.8516 1.64945 7.6841 1.90194 8.39224 2.37498C9.10038 2.84803 9.65238 3.52041 9.97846 4.30712C10.3045 5.09383 10.3901 5.95955 10.2242 6.79486C10.0583 7.63016 9.64856 8.39754 9.04666 9ZM3.99999 3.94C3.4618 4.47985 3.15959 5.21104 3.15959 5.97333C3.15959 6.73562 3.4618 7.46682 3.99999 8.00667C4.39983 8.40719 4.90905 8.68072 5.46376 8.79293C6.01847 8.90515 6.59396 8.85105 7.11804 8.63743C7.64212 8.42381 8.09145 8.06018 8.40965 7.59216C8.72785 7.12414 8.90075 6.57258 8.90666 6.00667C8.90967 5.6288 8.83688 5.25417 8.6926 4.90492C8.54832 4.55568 8.33548 4.2389 8.06666 3.97333C7.80244 3.70305 7.48738 3.48769 7.13961 3.33964C6.79184 3.19159 6.41822 3.11378 6.04026 3.11068C5.6623 3.10759 5.28746 3.17926 4.93731 3.32159C4.58716 3.46392 4.26861 3.67409 3.99999 3.94ZM7.12666 7.06C6.87402 7.31649 6.54013 7.47727 6.18208 7.51483C5.82402 7.5524 5.46404 7.46442 5.16367 7.26595C4.86329 7.06748 4.64119 6.77083 4.53533 6.42672C4.42947 6.08261 4.44643 5.71242 4.5833 5.37944C4.72017 5.04645 4.96846 4.77134 5.28572 4.60116C5.60297 4.43097 5.9695 4.37627 6.32262 4.44641C6.67574 4.51655 6.99353 4.70717 7.22167 4.98569C7.4498 5.2642 7.5741 5.61331 7.57333 5.97333C7.56363 6.38485 7.39099 6.77568 7.09333 7.06H7.12666Z" fill="currentColor"/>
</svg>
