<svg viewBox="0 0 10 11" fill="none" xmlns="http://www.w3.org/2000/svg">
<path d="M7.3 7C7.2 6.95 6.55 6.65 6.45 6.6C6.35 6.55 6.25 6.55 6.15 6.65C6.05 6.75 5.85 7.05 5.75 7.15C5.7 7.25 5.6 7.25 5.5 7.2C5.15 7.05 4.8 6.85 4.5 6.6C4.25 6.35 4 6.05 3.8 5.75C3.75 5.65 3.8 5.55 3.85 5.5C3.9 5.45 3.95 5.35 4.05 5.3C4.1 5.25 4.15 5.15 4.15 5.1C4.2 5.05 4.2 4.95 4.15 4.9C4.1 4.85 3.85 4.25 3.75 4C3.7 3.65 3.6 3.65 3.5 3.65H3.25C3.15 3.65 3 3.75 2.95 3.8C2.65 4.1 2.5 4.45 2.5 4.85C2.55 5.3 2.7 5.75 3 6.15C3.55 6.95 4.25 7.6 5.1 8C5.35 8.1 5.55 8.2 5.8 8.25C6.05 8.35 6.3 8.35 6.6 8.3C6.95 8.25 7.25 8 7.45 7.7C7.55 7.5 7.55 7.3 7.5 7.1L7.3 7ZM8.55 2.45C6.6 0.499999 3.45 0.499999 1.5 2.45C-0.1 4.05 -0.4 6.5 0.7 8.45L0 11L2.65 10.3C3.4 10.7 4.2 10.9 5 10.9C7.75 10.9 9.95 8.7 9.95 5.95C10 4.65 9.45 3.4 8.55 2.45ZM7.2 9.45C6.55 9.85 5.8 10.1 5 10.1C4.25 10.1 3.55 9.9 2.9 9.55L2.75 9.45L1.2 9.85L1.6 8.35L1.5 8.2C0.3 6.2 0.9 3.7 2.85 2.45C4.8 1.2 7.3 1.85 8.5 3.75C9.7 5.7 9.15 8.25 7.2 9.45Z" fill="currentColor"/>
</svg>
