<svg viewBox="0 0 12 12" fill="none" xmlns="http://www.w3.org/2000/svg">
<path d="M11.1325 1.214C10.99 1.09567 10.8182 1.01813 10.6353 0.989608C10.4524 0.961084 10.2651 0.982645 10.0935 1.052L1.13295 4.6695C0.941379 4.74835 0.778308 4.88358 0.665374 5.05726C0.55244 5.23093 0.494982 5.43484 0.500623 5.64193C0.506264 5.84902 0.574737 6.0495 0.696958 6.21677C0.819179 6.38404 0.98937 6.5102 1.18495 6.5785L2.99745 7.209L4.00745 10.55C4.02131 10.5946 4.04134 10.637 4.06695 10.676C4.07095 10.682 4.07645 10.686 4.08045 10.6925C4.10999 10.7335 4.14556 10.7697 4.18595 10.8L4.22095 10.825C4.26838 10.8563 4.3208 10.8793 4.37595 10.893L4.38245 10.8935L4.38545 10.895C4.41886 10.9018 4.45287 10.9051 4.48695 10.905L4.49595 10.9035C4.54715 10.9026 4.59791 10.8938 4.64645 10.8775C4.65745 10.8728 4.66812 10.8678 4.67845 10.8625C4.71474 10.8476 4.74914 10.8285 4.78095 10.8055L4.85695 10.741L6.20795 9.2495L8.22295 10.8105C8.40026 10.9487 8.61862 11.0239 8.84345 11.024C9.07907 11.0237 9.30743 10.9424 9.49023 10.7938C9.67303 10.6451 9.79916 10.4381 9.84745 10.2075L11.479 2.199C11.5159 2.01883 11.5031 1.83202 11.4421 1.65852C11.381 1.48503 11.274 1.33139 11.1325 1.214ZM4.68495 7.368C4.61585 7.43722 4.56856 7.52518 4.54895 7.621L4.39395 8.373L4.00195 7.0765L6.03445 6.018L4.68495 7.368ZM8.83595 10.02L6.45445 8.175C6.35485 8.09799 6.22986 8.06139 6.10445 8.07252C5.97904 8.08364 5.86245 8.14166 5.77795 8.235L5.34495 8.7125L5.49795 7.969L9.03945 4.4275C9.12348 4.34296 9.17454 4.23118 9.18343 4.11231C9.19232 3.99344 9.15845 3.87531 9.08793 3.77921C9.01741 3.68311 8.91488 3.61537 8.79882 3.58819C8.68276 3.56102 8.56081 3.5762 8.45495 3.631L3.37245 6.277L1.50995 5.5955L10.4995 2L8.83595 10.02Z" fill="currentColor"/>
</svg>
