<svg viewBox="0 0 8 4" fill="none" xmlns="http://www.w3.org/2000/svg">
<path d="M6.91666 0.349168C6.80736 0.240521 6.65952 0.179539 6.50541 0.179539C6.3513 0.179539 6.20345 0.240521 6.09416 0.349168L3.99999 2.41417L1.93499 0.349168C1.8257 0.240521 1.67785 0.179539 1.52374 0.179539C1.36963 0.179539 1.22179 0.240521 1.11249 0.349168C1.05782 0.403396 1.01442 0.467913 0.984804 0.538998C0.955189 0.610082 0.939941 0.686327 0.939941 0.763334C0.939941 0.840341 0.955189 0.916586 0.984804 0.987671C1.01442 1.05876 1.05782 1.12327 1.11249 1.1775L3.58582 3.65083C3.64005 3.70551 3.70457 3.74891 3.77565 3.77852C3.84674 3.80814 3.92298 3.82338 3.99999 3.82338C4.077 3.82338 4.15324 3.80814 4.22433 3.77852C4.29541 3.74891 4.35993 3.70551 4.41416 3.65083L6.91666 1.1775C6.97133 1.12327 7.01473 1.05876 7.04434 0.987671C7.07396 0.916586 7.08921 0.840341 7.08921 0.763334C7.08921 0.686327 7.07396 0.610082 7.04434 0.538998C7.01473 0.467913 6.97133 0.403396 6.91666 0.349168Z" fill="currentColor"/>
</svg>
