<svg width="10" height="10" viewBox="0 0 10 10" fill="none" xmlns="http://www.w3.org/2000/svg">
<path d="M9.08331 4.4139H5.58331V0.9139C5.58331 0.75919 5.52185 0.610817 5.41246 0.501421C5.30306 0.392025 5.15469 0.330566 4.99998 0.330566C4.84527 0.330566 4.6969 0.392025 4.5875 0.501421C4.4781 0.610817 4.41665 0.75919 4.41665 0.9139V4.4139H0.916646C0.761937 4.4139 0.613564 4.47536 0.504167 4.58475C0.394771 4.69415 0.333313 4.84252 0.333313 4.99723C0.333313 5.15194 0.394771 5.30032 0.504167 5.40971C0.613564 5.51911 0.761937 5.58057 0.916646 5.58057H4.41665V9.08057C4.41665 9.23528 4.4781 9.38365 4.5875 9.49305C4.6969 9.60244 4.84527 9.6639 4.99998 9.6639C5.15469 9.6639 5.30306 9.60244 5.41246 9.49305C5.52185 9.38365 5.58331 9.23528 5.58331 9.08057V5.58057H9.08331C9.23802 5.58057 9.3864 5.51911 9.49579 5.40971C9.60519 5.30032 9.66665 5.15194 9.66665 4.99723C9.66665 4.84252 9.60519 4.69415 9.49579 4.58475C9.3864 4.47536 9.23802 4.4139 9.08331 4.4139Z" fill="#8E9198"/>
</svg>
