<?xml version="1.0" encoding="utf-8"?><svg xmlns="http://www.w3.org/2000/svg" xmlns:xlink="http://www.w3.org/1999/xlink"><symbol viewBox="0 0 8 4" id="icon-chevron-down" xmlns="http://www.w3.org/2000/svg"><path d="M6.917.35a.583.583 0 0 0-.823 0L4 2.413 1.935.35a.583.583 0 1 0-.823.829L3.586 3.65a.583.583 0 0 0 .828 0l2.503-2.473a.583.583 0 0 0 0-.829Z"/></symbol><symbol viewBox="0 0 12 14" id="icon-location" xmlns="http://www.w3.org/2000/svg"><path d="M10 1.987a5.657 5.657 0 1 0-8 8l3.513 3.52a.669.669 0 0 0 .947 0L10 9.953a5.633 5.633 0 0 0 0-7.966ZM9.047 9 6 12.06 2.953 9a4.307 4.307 0 1 1 6.094 0ZM4 3.94a2.88 2.88 0 0 0 1.464 4.853 2.873 2.873 0 0 0 3.443-2.786 2.827 2.827 0 0 0-.84-2.034A2.867 2.867 0 0 0 4 3.94Zm3.127 3.12a1.553 1.553 0 1 1 .446-1.087c-.01.412-.182.803-.48 1.087h.034Z"/></symbol><symbol viewBox="0 0 10 2" id="minus" xmlns="http://www.w3.org/2000/svg"><path d="M9.083.414H.917a.583.583 0 0 0 0 1.166h8.166a.583.583 0 1 0 0-1.166Z"/></symbol><symbol viewBox="0 0 10 10" id="plus" xmlns="http://www.w3.org/2000/svg"><path d="M9.083 4.414h-3.5v-3.5a.583.583 0 0 0-1.166 0v3.5h-3.5a.583.583 0 0 0 0 1.167h3.5v3.5a.583.583 0 1 0 1.166 0v-3.5h3.5a.583.583 0 1 0 0-1.167Z"/></symbol></svg>