<?xml version="1.0" encoding="utf-8"?><svg xmlns="http://www.w3.org/2000/svg" xmlns:xlink="http://www.w3.org/1999/xlink"><symbol fill="none" viewBox="0 0 24 24" id="clock" xmlns="http://www.w3.org/2000/svg"><path d="M12 6a1 1 0 0 1 1 1v4.422l2.098 1.212a1 1 0 0 1-1 1.732l-2.598-1.5A1 1 0 0 1 11 12V7a1 1 0 0 1 1-1Z" fill="currentColor"/><path opacity=".5" d="M2 12a10 10 0 1 0 20 0 10 10 0 0 0-20 0Zm9-5a1 1 0 0 1 2 0v4.422l2.098 1.212a1 1 0 0 1-1 1.732l-2.598-1.5A1 1 0 0 1 11 12V7Z" fill="currentColor"/></symbol></svg>