<?xml version="1.0" encoding="utf-8"?><svg xmlns="http://www.w3.org/2000/svg" xmlns:xlink="http://www.w3.org/1999/xlink"><symbol viewBox="0 0 8 4" id="icon-chevron-down" xmlns="http://www.w3.org/2000/svg"><path d="M6.917.35a.583.583 0 0 0-.823 0L4 2.413 1.935.35a.583.583 0 1 0-.823.829L3.586 3.65a.583.583 0 0 0 .828 0l2.503-2.473a.583.583 0 0 0 0-.829Z"/></symbol><symbol viewBox="0 0 12 14" id="icon-location" xmlns="http://www.w3.org/2000/svg"><path d="M10 1.987a5.657 5.657 0 1 0-8 8l3.513 3.52a.669.669 0 0 0 .947 0L10 9.953a5.633 5.633 0 0 0 0-7.966ZM9.047 9 6 12.06 2.953 9a4.307 4.307 0 1 1 6.094 0ZM4 3.94a2.88 2.88 0 0 0 1.464 4.853 2.873 2.873 0 0 0 3.443-2.786 2.827 2.827 0 0 0-.84-2.034A2.867 2.867 0 0 0 4 3.94Zm3.127 3.12a1.553 1.553 0 1 1 .446-1.087c-.01.412-.182.803-.48 1.087h.034Z"/></symbol><symbol viewBox="0 0 12 12" id="icon-telegram" xmlns="http://www.w3.org/2000/svg"><path d="M11.133 1.214a1.026 1.026 0 0 0-1.04-.162L1.133 4.67a1.021 1.021 0 0 0 .052 1.909l1.812.63 1.01 3.341a.5.5 0 0 0 .06.126c.004.006.01.01.013.017a.5.5 0 0 0 .106.107l.035.025a.5.5 0 0 0 .155.068h.006l.003.002c.034.007.068.01.102.01l.009-.002a.5.5 0 0 0 .15-.026.503.503 0 0 0 .032-.014.497.497 0 0 0 .103-.057l.076-.065 1.351-1.492 2.015 1.561c.177.139.396.214.62.214a1.027 1.027 0 0 0 1.004-.816l1.632-8.009a1.015 1.015 0 0 0-.346-.985ZM4.684 7.368a.5.5 0 0 0-.136.253l-.155.752-.392-1.296 2.032-1.059-1.349 1.35Zm4.151 2.652L6.454 8.175a.5.5 0 0 0-.676.06l-.433.478.153-.744 3.541-3.542a.5.5 0 0 0-.584-.796L3.372 6.277 1.51 5.596 10.5 2l-1.664 8.02Z"/></symbol><symbol viewBox="0 0 10 11" id="icon-whatsapp" xmlns="http://www.w3.org/2000/svg"><path d="M7.3 7c-.1-.05-.75-.35-.85-.4-.1-.05-.2-.05-.3.05-.1.1-.3.4-.4.5-.05.1-.15.1-.25.05-.35-.15-.7-.35-1-.6-.25-.25-.5-.55-.7-.85-.05-.1 0-.2.05-.25.05-.05.1-.15.2-.2.05-.05.1-.15.1-.2.05-.05.05-.15 0-.2-.05-.05-.3-.65-.4-.9-.05-.35-.15-.35-.25-.35h-.25c-.1 0-.25.1-.3.15-.3.3-.45.65-.45 1.05.05.45.2.9.5 1.3.55.8 1.25 1.45 2.1 1.85.25.1.45.2.7.25.25.1.5.1.8.05.35-.05.65-.3.85-.6.1-.2.1-.4.05-.6L7.3 7Zm1.25-4.55a4.98 4.98 0 0 0-7.05 0c-1.6 1.6-1.9 4.05-.8 6L0 11l2.65-.7c.75.4 1.55.6 2.35.6 2.75 0 4.95-2.2 4.95-4.95.05-1.3-.5-2.55-1.4-3.5Zm-1.35 7c-.65.4-1.4.65-2.2.65-.75 0-1.45-.2-2.1-.55l-.15-.1-1.55.4.4-1.5-.1-.15C.3 6.2.9 3.7 2.85 2.45 4.8 1.2 7.3 1.85 8.5 3.75c1.2 1.95.65 4.5-1.3 5.7Z"/></symbol><symbol viewBox="0 0 10 2" id="minus" xmlns="http://www.w3.org/2000/svg"><path d="M9.083.414H.917a.583.583 0 0 0 0 1.166h8.166a.583.583 0 1 0 0-1.166Z"/></symbol><symbol viewBox="0 0 10 10" id="plus" xmlns="http://www.w3.org/2000/svg"><path d="M9.083 4.414h-3.5v-3.5a.583.583 0 0 0-1.166 0v3.5h-3.5a.583.583 0 0 0 0 1.167h3.5v3.5a.583.583 0 1 0 1.166 0v-3.5h3.5a.583.583 0 1 0 0-1.167Z"/></symbol></svg>