<?xml version="1.0" encoding="utf-8"?><svg xmlns="http://www.w3.org/2000/svg" xmlns:xlink="http://www.w3.org/1999/xlink"><symbol viewBox="0 0 14 9" id="arrow-down" xmlns="http://www.w3.org/2000/svg"><g filter="url(#aa)"><path d="M9.917.35a.583.583 0 0 0-.823 0L7 2.413 4.935.35a.583.583 0 1 0-.823.829L6.586 3.65a.583.583 0 0 0 .828 0l2.503-2.473a.583.583 0 0 0 0-.829Z"/></g><defs><filter id="aa" x="-.06" y=".18" width="14.149" height="11.644" filterUnits="userSpaceOnUse" color-interpolation-filters="sRGB"><feFlood flood-opacity="0" result="BackgroundImageFix"/><feColorMatrix in="SourceAlpha" values="0 0 0 0 0 0 0 0 0 0 0 0 0 0 0 0 0 0 127 0" result="hardAlpha"/><feOffset dy="4"/><feGaussianBlur stdDeviation="2"/><feComposite in2="hardAlpha" operator="out"/><feColorMatrix values="0 0 0 0 0 0 0 0 0 0 0 0 0 0 0 0 0 0 0.25 0"/><feBlend in2="BackgroundImageFix" result="effect1_dropShadow_59_2914"/><feBlend in="SourceGraphic" in2="effect1_dropShadow_59_2914" result="shape"/></filter></defs></symbol><symbol viewBox="0 0 10 2" id="minus" xmlns="http://www.w3.org/2000/svg"><path d="M9.083.414H.917a.583.583 0 0 0 0 1.166h8.166a.583.583 0 1 0 0-1.166Z"/></symbol><symbol viewBox="0 0 10 10" id="plus" xmlns="http://www.w3.org/2000/svg"><path d="M9.083 4.414h-3.5v-3.5a.583.583 0 0 0-1.166 0v3.5h-3.5a.583.583 0 0 0 0 1.167h3.5v3.5a.583.583 0 1 0 1.166 0v-3.5h3.5a.583.583 0 1 0 0-1.167Z"/></symbol></svg>