<svg width="204" height="52" viewBox="0 0 204 52" fill="none" xmlns="http://www.w3.org/2000/svg" role="img" aria-labelledby="logoTitle">
    <title id="logoTitle">Логотип клининговой компании Чистый день</title>
    <path d="M59.872 31.112C58.1867 31.112 56.9013 30.6853 56.016 29.832C55.1307 28.968 54.688 27.72 54.688 26.088V23H57.408V25.864C57.408 26.8133 57.664 27.528 58.176 28.008C58.688 28.488 59.456 28.728 60.48 28.728C61.0667 28.728 61.68 28.6587 62.32 28.52C62.9707 28.3813 63.616 28.184 64.256 27.928L64.416 30.104C63.7547 30.4347 63.0293 30.6853 62.24 30.856C61.4613 31.0267 60.672 31.112 59.872 31.112ZM63.888 35V23H66.592V35H63.888ZM69.0601 35V23H71.7161V33.624L70.9001 33.464L78.4841 23H82.0201V35H79.3641V24.232L80.1801 24.392L72.5001 35H69.0601ZM97.474 30.12C97.3567 31.1333 96.9993 32.0293 96.402 32.808C95.8153 33.576 95.0367 34.1733 94.066 34.6C93.106 35.0267 92.0073 35.24 90.77 35.24C89.4047 35.24 88.2047 34.9787 87.17 34.456C86.146 33.9333 85.346 33.208 84.77 32.28C84.194 31.3413 83.906 30.248 83.906 29C83.906 27.752 84.194 26.664 84.77 25.736C85.346 24.7973 86.146 24.0667 87.17 23.544C88.2047 23.0213 89.4047 22.76 90.77 22.76C92.0073 22.76 93.106 22.9733 94.066 23.4C95.0367 23.8267 95.8153 24.424 96.402 25.192C96.9993 25.96 97.3567 26.856 97.474 27.88H94.738C94.6313 27.3147 94.402 26.8293 94.05 26.424C93.698 26.008 93.2447 25.688 92.69 25.464C92.1353 25.24 91.49 25.128 90.754 25.128C89.9113 25.128 89.1807 25.288 88.562 25.608C87.954 25.9173 87.4847 26.3653 87.154 26.952C86.8233 27.528 86.658 28.2107 86.658 29C86.658 29.7893 86.8233 30.4773 87.154 31.064C87.4847 31.64 87.954 32.088 88.562 32.408C89.1807 32.7173 89.9113 32.872 90.754 32.872C91.49 32.872 92.1353 32.7653 92.69 32.552C93.2447 32.328 93.698 32.0133 94.05 31.608C94.402 31.192 94.6313 30.696 94.738 30.12H97.474ZM102.556 24.216H105.26V35H102.556V24.216ZM97.772 23H110.028V25.4H97.772V23ZM111.545 35V23H114.265V34.056L113.033 32.84H117.897C118.526 32.84 119.022 32.68 119.385 32.36C119.758 32.0293 119.945 31.5867 119.945 31.032C119.945 30.4773 119.758 30.04 119.385 29.72C119.022 29.3893 118.526 29.224 117.897 29.224H112.793V27.064H118.041C119.001 27.064 119.827 27.2293 120.521 27.56C121.214 27.8907 121.747 28.3547 122.121 28.952C122.505 29.5493 122.697 30.2427 122.697 31.032C122.697 31.8213 122.505 32.5147 122.121 33.112C121.747 33.7093 121.214 34.1733 120.521 34.504C119.827 34.8347 119.001 35 118.041 35H111.545ZM123.849 23H126.569V35H123.849V23ZM129.013 35V23H131.669V33.624L130.853 33.464L138.437 23H141.973V35H139.317V24.232L140.133 24.392L132.453 35H129.013ZM131.637 19.448H133.797C133.925 19.8213 134.123 20.1093 134.389 20.312C134.667 20.5147 135.013 20.616 135.429 20.616C135.845 20.616 136.187 20.5147 136.453 20.312C136.731 20.1093 136.928 19.8213 137.045 19.448H139.221C139.008 20.3867 138.565 21.0747 137.893 21.512C137.221 21.9493 136.4 22.168 135.429 22.168C134.459 22.168 133.637 21.9493 132.965 21.512C132.293 21.0747 131.851 20.3867 131.637 19.448ZM147.194 37.448V32.6H149.434L150.586 32.632H159.226L159.882 32.6H163.114V37.448H160.57V35H149.738V37.448H147.194ZM149.77 23H161.018V34.136H158.314V24.152L159.53 25.368H151.226L152.362 24.488C152.426 25.0213 152.468 25.5493 152.49 26.072C152.511 26.5947 152.522 27.0853 152.522 27.544C152.522 28.8453 152.42 29.9493 152.218 30.856C152.015 31.752 151.711 32.4347 151.306 32.904C150.9 33.3627 150.399 33.592 149.802 33.592L148.682 32.648C149.13 32.136 149.46 31.416 149.674 30.488C149.898 29.5493 150.01 28.3813 150.01 26.984C150.01 26.3653 149.988 25.72 149.946 25.048C149.903 24.376 149.844 23.6933 149.77 23ZM174.699 27.96V30.04H166.107V27.96H174.699ZM167.931 29L167.131 34.088L165.947 32.744H175.195V35H164.395L165.323 29L164.395 23H175.115V25.256H165.947L167.131 23.912L167.931 29ZM177.263 23H179.983V35H177.263V23ZM186.863 23H189.583V35H186.863V23ZM178.751 27.736H188.063V30.12H178.751V27.736ZM192.045 35V23H194.765V34.056L193.533 32.84H198.397C199.026 32.84 199.522 32.68 199.885 32.36C200.258 32.0293 200.445 31.5867 200.445 31.032C200.445 30.4773 200.258 30.04 199.885 29.72C199.522 29.3893 199.026 29.224 198.397 29.224H193.293V27.064H198.541C199.501 27.064 200.327 27.2293 201.021 27.56C201.714 27.8907 202.247 28.3547 202.621 28.952C203.005 29.5493 203.197 30.2427 203.197 31.032C203.197 31.8213 203.005 32.5147 202.621 33.112C202.247 33.7093 201.714 34.1733 201.021 34.504C200.327 34.8347 199.501 35 198.541 35H192.045Z" fill="#030E23"/>
    <path d="M8.56681 35.3311C7.71398 35.8142 6.87761 36.3317 6.00321 36.7699C5.24128 37.1517 4.44024 37.4541 3.64918 37.7724C3.08252 38.0004 2.64208 37.7542 2.28148 37.3165C1.3472 36.1826 0.824234 34.8346 0.411037 33.4423C0.221431 32.8038 0.100061 32.1378 0.0153723 31.4753C-0.0528644 30.9411 0.10168 30.7606 0.634088 30.6715C1.30755 30.559 1.98695 30.4742 2.66716 30.4159C5.9339 30.1356 9.08169 29.3755 12.0857 28.0217C15.6071 26.4349 18.7249 24.2275 21.572 21.6036C21.7052 21.4809 21.846 21.367 22.0057 21.23C24.7791 23.2762 27.5404 25.3136 30.3057 27.354C29.9187 28.1744 29.5317 28.9617 29.1727 29.7623C28.0156 32.3424 27.2105 35.0324 26.8637 37.8502C26.4642 41.0956 26.7396 44.2911 27.6742 47.4221C27.9673 48.4042 28.295 49.3753 28.5968 50.3546C28.8862 51.293 28.8153 51.4391 27.894 51.7037C25.7668 52.3147 23.7949 52.0025 22.0456 50.586C21.2095 49.909 20.8656 48.937 20.7162 47.8969C20.4578 46.098 20.7885 44.3558 21.2632 42.6328C21.3486 42.3231 21.453 42.0188 21.5488 41.7118C21.517 41.6887 21.4854 41.6656 21.4536 41.6425C21.0789 42.1159 20.6719 42.5665 20.3356 43.0669C19.178 44.7896 18.6275 46.684 18.8633 48.7863C18.9115 49.2176 18.7182 49.3956 18.3214 49.26C16.232 48.5461 14.2002 47.7178 12.4568 46.2837C11.5819 45.564 11.1304 44.6639 11.1034 43.5233C11.0719 42.1902 11.1083 40.8639 11.395 39.5553C11.416 39.4596 11.3977 39.3547 11.3586 39.2403C10.4618 40.4626 9.71469 41.7632 9.19928 43.2422C7.94728 42.572 6.86116 41.8128 6.30987 40.4849C5.99593 39.7289 6.00159 38.9325 6.42666 38.2373C6.92265 37.4263 7.51332 36.6747 8.08052 35.9108C8.22616 35.7146 8.43843 35.5699 8.62021 35.4018C8.60241 35.3784 8.58461 35.3551 8.56681 35.3317V35.3311Z" fill="#2972FE"/>
    <path d="M23.3097 19.501C24.2178 18.3093 25.0823 17.1473 25.9825 16.015C26.1867 15.7583 26.5015 15.5803 26.7893 15.4075C28.0162 14.6716 29.3278 14.4761 30.7019 14.8604C31.0199 14.9492 31.1836 14.8857 31.3657 14.6103C34.2475 10.2502 37.1399 5.89733 40.0304 1.54331C40.1968 1.29242 40.363 1.04098 40.5388 0.796966C41.1742 -0.0839045 42.3202 -0.256117 43.2216 0.388993C44.0262 0.965053 44.2603 2.18292 43.6699 3.02885C43.0037 3.984 42.2838 4.90009 41.5823 5.82965C39.7699 8.23128 37.9542 10.6299 36.1415 13.0312C35.2902 14.1589 34.4471 15.2931 33.5886 16.4147C33.4419 16.6062 33.4514 16.7297 33.5795 16.928C34.8374 18.8766 34.7638 21.1643 33.4012 23.0595C32.8742 23.7926 32.3563 24.5329 31.8331 25.2691C31.7587 25.3736 31.6777 25.4732 31.579 25.6028C28.8428 23.5841 26.1266 21.58 23.3094 19.5016L23.3097 19.501Z" fill="#2972FE"/>
    <path d="M3.81425 22.0928C4.0907 21.9439 4.28894 21.7945 4.51118 21.7247C5.47485 21.4212 6.15641 20.8474 6.42262 19.8146C6.48869 19.5583 6.6427 19.3255 6.81073 18.9654C7.05077 19.4859 7.28002 19.8807 7.41785 20.3065C7.60799 20.8939 7.97021 21.2534 8.52743 21.4672C8.94252 21.6265 9.33657 21.8424 9.74005 22.0331C9.74248 22.0727 9.74491 22.1126 9.74733 22.1522C9.56258 22.249 9.38646 22.3742 9.19146 22.4383C8.17061 22.7728 7.44617 23.3978 7.16 24.4911C7.10229 24.712 6.97768 24.9145 6.83015 25.2465C6.68666 24.9488 6.59065 24.7604 6.50434 24.5678C6.35977 24.2451 6.25647 23.8963 6.0701 23.6017C5.90369 23.339 5.68199 23.079 5.42496 22.9175C5.02201 22.6641 4.56755 22.4963 4.13655 22.2886C4.0497 22.2468 3.97041 22.1888 3.81452 22.093L3.81425 22.0928Z" fill="#2972FE"/>
    <path d="M30.58 43.6562C31.1278 43.3511 31.7069 43.1654 32.0874 42.7773C32.4572 42.3998 32.6234 41.815 32.9163 41.2491C33.22 41.815 33.4039 42.4106 33.7882 42.8017C34.1672 43.1874 34.7484 43.3663 35.29 43.6625C34.7433 43.9646 34.1607 44.1467 33.7815 44.5354C33.4025 44.9236 33.2272 45.5184 32.9295 46.0856C32.6441 45.5302 32.4758 44.9363 32.1017 44.5489C31.7236 44.1574 31.1418 43.9709 30.5803 43.6562H30.58Z" fill="#2972FE"/>
    <path d="M13.9138 20.8468C13.759 20.5029 13.6263 20.2631 13.5408 20.0067C13.3536 19.4463 13.0062 19.0708 12.4558 18.8661C12.1993 18.7706 11.9695 18.6012 11.7275 18.465C11.9673 18.3126 12.1898 18.109 12.4501 18.0177C13.0602 17.8037 13.3817 17.3569 13.5807 16.7679C13.6533 16.5528 13.7701 16.3533 13.909 16.056C14.217 16.6425 14.3866 17.2185 14.7534 17.5938C15.1218 17.9707 15.6866 18.1475 16.2393 18.4529C15.6958 18.7473 15.1286 18.9162 14.7634 19.2906C14.3936 19.6697 14.2237 20.2518 13.9135 20.8466L13.9138 20.8468Z" fill="#2972FE"/>
</svg>
