<svg width="24" height="24" viewBox="0 0 24 24" fill="none" xmlns="http://www.w3.org/2000/svg">
<path d="M12 6C12.2652 6 12.5196 6.10536 12.7071 6.29289C12.8946 6.48043 13 6.73478 13 7V11.422L15.098 12.634C15.3258 12.7676 15.4915 12.9858 15.559 13.2411C15.6265 13.4964 15.5903 13.768 15.4583 13.9967C15.3262 14.2254 15.1091 14.3926 14.8543 14.4617C14.5994 14.5309 14.3276 14.4965 14.098 14.366L11.5 12.866C11.348 12.7782 11.2217 12.652 11.134 12.5C11.0462 12.348 11 12.1755 11 12V7C11 6.73478 11.1054 6.48043 11.2929 6.29289C11.4804 6.10536 11.7348 6 12 6Z" fill="currentColor"/>
<path opacity="0.5" d="M2 12C2 13.9778 2.58649 15.9112 3.6853 17.5557C4.78412 19.2002 6.3459 20.4819 8.17317 21.2388C10.0004 21.9957 12.0111 22.1937 13.9509 21.8079C15.8907 21.422 17.6725 20.4696 19.0711 19.0711C20.4696 17.6725 21.422 15.8907 21.8079 13.9509C22.1937 12.0111 21.9957 10.0004 21.2388 8.17317C20.4819 6.3459 19.2002 4.78412 17.5557 3.6853C15.9112 2.58649 13.9778 2 12 2C10.6868 2 9.38642 2.25866 8.17317 2.7612C6.95991 3.26375 5.85752 4.00035 4.92893 4.92893C3.05357 6.8043 2 9.34784 2 12ZM11 7C11 6.73478 11.1054 6.48043 11.2929 6.29289C11.4804 6.10536 11.7348 6 12 6C12.2652 6 12.5196 6.10536 12.7071 6.29289C12.8946 6.48043 13 6.73478 13 7V11.422L15.098 12.634C15.3258 12.7676 15.4915 12.9858 15.559 13.2411C15.6265 13.4964 15.5903 13.768 15.4583 13.9967C15.3262 14.2254 15.1091 14.3926 14.8543 14.4617C14.5994 14.5309 14.3276 14.4965 14.098 14.366L11.5 12.866C11.348 12.7782 11.2217 12.652 11.134 12.5C11.0462 12.348 11 12.1755 11 12V7Z" fill="currentColor"/>
</svg>
